<svg aria-hidden="true" style="position: absolute; width: 0; height: 0; overflow: hidden;" version="1.1" xmlns="http://www.w3.org/2000/svg" xmlns:xlink="http://www.w3.org/1999/xlink">
<defs>
<symbol id="icon-close" viewBox="0 0 20 20">
<path d="M10 8.586l-7.071-7.071-1.414 1.414 7.071 7.071-7.071 7.071 1.414 1.414 7.071-7.071 7.071 7.071 1.414-1.414-7.071-7.071 7.071-7.071-1.414-1.414-7.071 7.071z"></path>
</symbol>
<symbol id="icon-call" viewBox="0 0 24 24">
<path d="M5.2 1.284c-0.669 0.092-1.264 0.352-1.758 0.735l0.008-0.006c-0.591 0.456-1.283 1.291-1.606 1.936-0.724 1.45-0.769 3.325-0.125 5.291 1.294 3.952 5.583 8.903 10.071 11.625 0.725 0.44 1.881 1.014 2.551 1.267 1.805 0.683 3.566 0.788 4.999 0.299 1.344-0.458 2.475-1.463 3.056-2.715 0.588-1.269 0.343-2.586-0.622-3.344-0.415-0.326-3.519-2.505-3.796-2.665-0.465-0.268-0.874-0.393-1.295-0.396-0.754-0.006-1.241 0.251-2.134 1.125l-0.551 0.54-0.129-0.074c-1.13-0.647-3.857-3.336-4.698-4.633l-0.176-0.271 0.506-0.529c1.156-1.211 1.4-1.962 0.978-3.019-0.165-0.411-0.181-0.437-1.616-2.47-0.717-1.016-1.344-1.862-1.483-2.002-0.526-0.528-1.348-0.79-2.18-0.694zM6.063 2.863c0.127 0.060 0.276 0.173 0.356 0.27 0.332 0.403 2.476 3.475 2.607 3.736 0.273 0.545 0.196 0.729-0.695 1.658-0.337 0.351-0.647 0.706-0.69 0.79-0.179 0.351-0.174 0.892 0.011 1.297 0.505 1.102 3.235 4.008 4.862 5.174 0.808 0.58 1.241 0.744 1.739 0.658 0.369-0.063 0.483-0.136 1.007-0.645 0.647-0.627 0.872-0.819 1.076-0.915 0.257-0.121 0.438-0.109 0.765 0.049 0.319 0.153 3.745 2.566 3.903 2.748 0.219 0.252 0.269 0.776 0.117 1.217-0.257 0.74-1.010 1.543-1.821 1.94-0.542 0.266-0.98 0.364-1.72 0.388-0.073 0.003-0.158 0.005-0.243 0.005-0.654 0-1.284-0.102-1.875-0.291l0.044 0.012c-2.843-0.844-6.553-3.629-9.29-6.974-1.802-2.201-2.979-4.38-3.342-6.182-0.123-0.615-0.133-1.767-0.019-2.255 0.13-0.512 0.326-0.962 0.583-1.371l-0.012 0.020c0.242-0.364 0.764-0.895 1.076-1.094 0.541-0.347 1.137-0.436 1.562-0.235z"></path>
</symbol>
<symbol id="icon-cpu-charge" viewBox="0 0 24 24">
<path d="M7.94 1.26c-0.035 0.011-0.085 0.024-0.135 0.035l-0.013 0.002c-0.134 0.029-0.375 0.234-0.453 0.387-0.045 0.087-0.059 0.297-0.059 0.956 0 0.639-0.012 0.846-0.050 0.857-0.921 0.27-1.305 0.432-1.814 0.763-0.648 0.439-1.159 1.033-1.487 1.73l-0.011 0.026c-0.146 0.305-0.276 0.664-0.371 1.037l-0.009 0.042-0.026 0.138-0.847 0.014c-0.966 0.015-1.068 0.043-1.282 0.346-0.079 0.114-0.126 0.255-0.126 0.407s0.047 0.293 0.128 0.41l-0.002-0.002c0.209 0.294 0.33 0.33 1.173 0.347l0.735 0.014-0.025 0.363c-0.014 0.2-0.026 0.753-0.026 1.231v0.87l-0.709 0.014c-0.815 0.017-0.941 0.054-1.147 0.346-0.098 0.14-0.117 0.204-0.117 0.408s0.020 0.268 0.117 0.408c0.207 0.293 0.333 0.33 1.147 0.346l0.709 0.014v0.87c0 0.479 0.012 1.032 0.026 1.231l0.025 0.363-0.735 0.014c-0.843 0.016-0.965 0.053-1.173 0.346-0.098 0.138-0.117 0.204-0.117 0.408 0 0.203 0.019 0.268 0.117 0.407 0.214 0.303 0.317 0.331 1.282 0.346l0.847 0.014 0.025 0.138c0.014 0.076 0.072 0.277 0.128 0.447 0.534 1.61 1.59 2.6 3.274 3.068l0.319 0.088 0.020 0.876c0.019 0.814 0.027 0.886 0.108 1.017 0.139 0.201 0.368 0.331 0.628 0.331 0.208 0 0.396-0.083 0.534-0.219l-0 0c0.183-0.197 0.211-0.345 0.211-1.098v-0.708l0.39 0.027c0.214 0.014 0.781 0.026 1.26 0.026h0.87v0.726c0 0.696 0.005 0.734 0.096 0.891 0.24 0.41 0.851 0.482 1.171 0.137 0.183-0.195 0.213-0.347 0.213-1.073v-0.681h0.849c0.468 0 1.024-0.012 1.236-0.025l0.387-0.026 0.014 0.755c0.014 0.71 0.019 0.767 0.106 0.906 0.357 0.575 1.224 0.443 1.364-0.207 0.024-0.114 0.043-0.537 0.043-0.941v-0.733l0.143-0.026c0.416-0.106 0.776-0.236 1.119-0.397l-0.038 0.016c0.931-0.435 1.663-1.167 2.087-2.072l0.011-0.026c0.145-0.305 0.275-0.665 0.372-1.039l0.009-0.043 0.025-0.143h0.734c0.403 0 0.826-0.019 0.941-0.043 0.33-0.077 0.572-0.369 0.572-0.717 0-0.203-0.082-0.386-0.215-0.519v0c-0.199-0.199-0.398-0.24-1.188-0.24h-0.624l0.027-0.366c0.014-0.201 0.025-0.759 0.025-1.24v-0.873h0.598c0.329 0 0.69-0.021 0.804-0.045 0.66-0.141 0.783-1.048 0.184-1.365-0.15-0.079-0.24-0.090-0.878-0.104l-0.709-0.015v-0.87c0-0.478-0.012-1.035-0.026-1.236l-0.027-0.366h0.624c0.343 0 0.717-0.020 0.831-0.043 0.66-0.143 0.783-1.049 0.184-1.367-0.155-0.082-0.231-0.090-1.013-0.103l-0.848-0.014-0.025-0.138c-0.104-0.415-0.234-0.774-0.395-1.115l0.016 0.037c-0.444-0.941-1.189-1.679-2.108-2.104l-0.027-0.011c-0.305-0.138-1.023-0.381-1.128-0.381-0.051 0-0.060-0.114-0.060-0.75-0.002-1.034-0.062-1.238-0.411-1.416-0.101-0.054-0.221-0.086-0.348-0.086-0.257 0-0.484 0.129-0.619 0.326l-0.002 0.003-0.12 0.169-0.027 1.524-0.363-0.025c-0.342-0.016-0.743-0.026-1.146-0.026-0.032 0-0.063 0-0.095 0l0.005-0h-0.873l-0.002-0.611c-0.002-0.882-0.072-1.102-0.409-1.275-0.101-0.054-0.221-0.086-0.348-0.086-0.257 0-0.484 0.129-0.619 0.326l-0.002 0.003-0.12 0.169-0.015 0.736-0.014 0.736h-0.87c-0.479 0-1.035 0.012-1.236 0.026l-0.366 0.027v-0.708c0-0.77-0.029-0.905-0.231-1.116-0.085-0.074-0.187-0.133-0.299-0.168l-0.006-0.002c-0.204-0.060-0.216-0.061-0.285-0.039zM15.941 4.851c0.591 0.108 1.055 0.256 1.498 0.478 0.587 0.293 0.939 0.645 1.232 1.232 0.225 0.451 0.372 0.915 0.482 1.518 0.062 0.341 0.067 0.753 0.067 3.921s-0.006 3.58-0.067 3.921c-0.178 0.985-0.504 1.74-0.948 2.196-0.151 0.153-0.315 0.291-0.491 0.414l-0.011 0.008c-0.518 0.328-1.29 0.561-2.19 0.659-0.524 0.058-6.5 0.058-7.023 0-1.274-0.138-2.196-0.518-2.747-1.125-0.265-0.294-0.582-0.91-0.723-1.412-0.242-0.855-0.239-0.797-0.239-4.661 0-3.168 0.006-3.58 0.067-3.921 0.109-0.603 0.256-1.067 0.482-1.518 0.17-0.342 0.262-0.473 0.51-0.72 0.561-0.558 1.456-0.913 2.621-1.038 0.175-0.020 1.849-0.032 3.72-0.027 2.976 0.007 3.446 0.016 3.76 0.075zM9.908 6.282c-1.62 0.117-2.713 0.759-3.23 1.897-0.166 0.394-0.294 0.853-0.362 1.33l-0.004 0.030c-0.074 0.51-0.074 4.415 0 4.92 0.289 1.991 1.237 2.939 3.228 3.228 0.508 0.074 4.411 0.074 4.92 0 1.991-0.289 2.938-1.237 3.228-3.228 0.073-0.508 0.073-4.412 0-4.92-0.231-1.587-0.875-2.481-2.136-2.967-0.36-0.139-0.944-0.249-1.54-0.293-0.633-0.045-3.459-0.043-4.104 0.002zM14.726 7.869c0.645 0.18 1.008 0.455 1.232 0.93 0.258 0.547 0.262 0.612 0.262 3.201 0 2.607-0.005 2.663-0.276 3.224-0.229 0.476-0.558 0.721-1.215 0.907-0.302 0.087-0.36 0.088-2.729 0.088s-2.427-0.001-2.729-0.088c-0.657-0.186-0.986-0.432-1.215-0.907-0.271-0.561-0.276-0.616-0.276-3.224 0-2.1 0.008-2.371 0.071-2.642 0.219-0.931 0.681-1.354 1.683-1.54 0.221-0.040 0.818-0.051 2.586-0.043 2.215 0.008 2.311 0.012 2.605 0.095zM11.681 9.038c-0.087 0.048-0.162 0.104-0.228 0.168l0-0c-0.101 0.11-0.977 1.629-1.123 1.948-0.065 0.137-0.103 0.297-0.103 0.467 0 0.299 0.118 0.57 0.31 0.77l-0-0c0.221 0.244 0.47 0.333 1.010 0.36 0.25 0.012 0.454 0.029 0.454 0.038 0 0.008-0.161 0.293-0.355 0.633-0.383 0.666-0.432 0.81-0.365 1.059 0.15 0.556 0.864 0.748 1.246 0.336 0.116-0.126 0.986-1.62 1.145-1.968 0.24-0.524 0.021-1.197-0.473-1.447-0.181-0.093-0.567-0.159-0.928-0.159-0.017 0.001-0.038 0.002-0.058 0.002-0.075 0-0.148-0.008-0.219-0.024l0.007 0.001c0-0.011 0.167-0.311 0.369-0.666 0.336-0.591 0.367-0.665 0.366-0.852-0.002-0.117-0.026-0.227-0.068-0.328l0.002 0.006c-0.188-0.363-0.649-0.522-0.989-0.342z"></path>
</symbol>
<symbol id="icon-facebook" viewBox="0 0 24 24">
<path d="M8.38 1.265c-0.154 0.007-0.505 0.032-0.78 0.055-3.744 0.318-5.726 2.126-6.217 5.671-0.113 0.812-0.141 1.825-0.141 5.009 0 4.504 0.060 5.273 0.518 6.65 0.772 2.313 2.446 3.576 5.267 3.972 0.759 0.106 1.875 0.137 4.973 0.137s4.214-0.031 4.973-0.137c2.47-0.347 4.023-1.334 4.924-3.132 0.482-0.96 0.741-2.121 0.823-3.683 0.051-0.969 0.051-6.645 0-7.614-0.063-1.195-0.199-2.002-0.478-2.837-0.725-2.168-2.258-3.423-4.759-3.898-0.926-0.175-1.222-0.187-5.103-0.197-0.494-0.003-1.079-0.004-1.664-0.004-0.821 0-1.641 0.003-2.461 0.009l0.126-0.001zM16.8 2.854c2.786 0.462 3.914 1.6 4.348 4.386 0.066 0.421 0.072 0.824 0.072 4.76s-0.006 4.339-0.072 4.76c-0.434 2.789-1.587 3.95-4.348 4.382-0.286 0.045-0.8 0.072-1.61 0.087l-1.19 0.021v-6.527l1.159-0.011c1.141-0.012 1.16-0.013 1.249-0.102 0.073-0.073 0.129-0.277 0.297-1.079 0.189-0.896 0.203-1.002 0.155-1.117-0.029-0.070-0.075-0.128-0.133-0.17l-0.001-0.001c-0.053-0.028-0.532-0.043-1.403-0.043h-1.323v-1.52c0-1.467 0.003-1.523 0.080-1.6s0.133-0.080 1.42-0.080 1.343-0.003 1.42-0.080 0.080-0.133 0.080-1.42c0-1.301-0.002-1.342-0.083-1.423s-0.107-0.082-1.77-0.067c-1.611 0.014-1.7 0.019-1.986 0.105-0.947 0.278-1.686 0.987-2 1.895l-0.006 0.021-0.135 0.389-0.012 1.95-0.013 1.95h-0.935c-0.921 0-0.936 0.001-0.998 0.089-0.052 0.075-0.062 0.255-0.062 1.16 0 1.018 0.004 1.075 0.080 1.151s0.133 0.080 1 0.080h0.92v6.448l-1.69-0.019c-1.317-0.014-1.783-0.033-2.11-0.085-2.765-0.443-3.919-1.601-4.346-4.364-0.069-0.445-0.074-0.791-0.074-4.78 0-4.753-0.004-4.663 0.264-5.712 0.513-2.006 1.678-3.014 3.916-3.388 0.73-0.123 1.088-0.131 5.24-0.123 3.763 0.007 4.222 0.014 4.6 0.077z"></path>
</symbol>
<symbol id="icon-global-edit" viewBox="0 0 24 24">
<path d="M11.56 1.266c-2.289 0.101-4.374 0.9-6.067 2.187l0.027-0.019c-0.607 0.456-1.641 1.489-2.095 2.097-1.35 1.772-2.163 4.016-2.163 6.451 0 0.228 0.007 0.455 0.021 0.68l-0.002-0.031c0.125 2.217 0.911 4.228 2.162 5.865l-0.019-0.026c0.456 0.614 1.483 1.641 2.106 2.106 1.347 1.023 2.977 1.744 4.753 2.033l0.062 0.008c0.6 0.093 1.594 0.145 1.829 0.096 0.648-0.138 0.765-1.058 0.174-1.359-0.135-0.069-0.277-0.091-0.767-0.117-0.541-0.020-1.054-0.085-1.552-0.192l0.058 0.010c-0.3-0.061-0.366-0.099-0.367-0.21 0-0.030-0.079-0.309-0.177-0.619-0.302-0.962-0.663-2.391-0.764-3.023l-0.029-0.176 0.274 0.027c1.302 0.128 3.030 0.183 3.242 0.102 0.275-0.115 0.465-0.382 0.465-0.694 0-0.003-0-0.006-0-0.009v0c0-0.246-0.087-0.414-0.304-0.59l-0.152-0.123-1.169-0.049c-1.023-0.044-2.283-0.14-2.53-0.194-0.076-0.016-0.088-0.071-0.151-0.708-0.086-0.82-0.135-1.772-0.135-2.735 0-0.417 0.009-0.831 0.027-1.243l-0.002 0.059c0.032-0.702 0.075-1.308 0.13-1.911l-0.012 0.159 0.066-0.62 0.639-0.066c0.858-0.095 1.852-0.149 2.859-0.149 0.976 0 1.941 0.051 2.89 0.15l-0.119-0.010c0.66 0.063 0.712 0.075 0.729 0.152 0.054 0.251 0.143 1.423 0.182 2.385 0.024 0.603 0.053 1.157 0.063 1.228 0.023 0.153 0.215 0.385 0.391 0.477 0.096 0.039 0.208 0.062 0.324 0.062 0.115 0 0.226-0.022 0.327-0.062l-0.006 0.002c0.165-0.092 0.295-0.23 0.374-0.397l0.002-0.005c0.081-0.212 0.025-1.94-0.102-3.241l-0.027-0.274 0.176 0.028c0.616 0.099 2.028 0.453 3.017 0.759 0.308 0.095 0.607 0.183 0.665 0.197 0.095 0.021 0.11 0.054 0.168 0.354 0.117 0.594 0.15 0.87 0.184 1.512 0.029 0.546 0.045 0.653 0.121 0.775 0.346 0.561 1.22 0.431 1.355-0.203 0.049-0.234-0.003-1.228-0.096-1.829-0.298-1.838-1.020-3.468-2.063-4.842l0.020 0.027c-0.456-0.609-1.491-1.646-2.094-2.097-1.437-1.095-3.196-1.842-5.112-2.084l-0.053-0.005c-0.443-0.051-0.956-0.081-1.476-0.081-0.098 0-0.196 0.001-0.294 0.003l0.015-0zM13 2.8c0.188 0.022 0.542 0.079 0.79 0.124 0.425 0.080 0.452 0.090 0.474 0.189 0.014 0.059 0.102 0.359 0.197 0.666 0.288 0.938 0.63 2.296 0.762 3.036l0.029 0.156-1.111-0.102c-0.683-0.063-3.599-0.063-4.281 0l-1.109 0.102 0.029-0.176c0.099-0.616 0.453-2.028 0.759-3.017 0.095-0.308 0.183-0.608 0.197-0.666 0.022-0.099 0.050-0.109 0.474-0.189 0.249-0.046 0.577-0.1 0.73-0.12 0.318-0.025 0.688-0.039 1.062-0.039 0.351 0 0.7 0.012 1.045 0.037l-0.046-0.003zM16.437 3.885c1.241 0.663 2.451 1.78 3.313 3.058 0.189 0.282 0.587 1.013 0.563 1.036-0.234-0.041-0.434-0.091-0.629-0.152l0.035 0.009c-0.561-0.164-1.378-0.358-2.205-0.522l-0.221-0.036-0.488-0.090-0.087-0.485c-0.136-0.752-0.594-2.676-0.706-2.969-0.033-0.087 0.012-0.072 0.424 0.149zM7.959 3.769c0 0.029-0.072 0.321-0.162 0.651-0.159 0.554-0.346 1.358-0.503 2.172l-0.034 0.213-0.068 0.385-0.486 0.089c-0.626 0.114-1.689 0.359-2.427 0.558-0.156 0.049-0.356 0.098-0.56 0.136l-0.034 0.005c0.061-0.158 0.126-0.292 0.201-0.42l-0.007 0.013c0.772-1.449 2.142-2.833 3.601-3.642 0.391-0.216 0.48-0.246 0.478-0.161zM6.942 9.070l-0.066 0.729c-0.031 0.484-0.054 1.077-0.063 1.674l-0 0.027c-0.022 1.247 0.009 2.149 0.113 3.231 0.026 0.258 0.036 0.482 0.022 0.494-0.058 0.058-2.024-0.408-3.045-0.725-0.001-0.011-0.244-0.085-0.488-0.157l-0.241-0.061-0.165-0.043-0.084-0.45c-0.106-0.496-0.166-1.065-0.166-1.649 0-0.049 0-0.099 0.001-0.148l-0 0.007c0-0.712 0.034-1.084 0.165-1.791 0.080-0.425 0.090-0.452 0.189-0.474 0.058-0.014 0.358-0.102 0.666-0.197 0.765-0.236 1.482-0.428 2.22-0.594 1.075-0.24 0.978-0.253 0.942 0.126zM19.755 14.517c-0.504 0.16-0.633 0.273-2.781 2.42-2.193 2.19-2.194 2.19-2.311 2.713-0.107 0.477-0.232 1.56-0.213 1.848 0.015 0.337 0.165 0.636 0.397 0.847l0.001 0.001c0.411 0.393 0.725 0.439 1.89 0.276 0.806-0.113 1.088-0.189 1.373-0.375 0.099-0.064 1.052-0.987 2.118-2.052 2.063-2.058 2.258-2.283 2.412-2.781 0.052-0.169 0.082-0.364 0.082-0.565 0-0.406-0.122-0.784-0.331-1.098l0.005 0.007c-0.268-0.379-0.586-0.701-0.948-0.965l-0.012-0.008c-0.5-0.33-1.157-0.435-1.68-0.267zM20.552 15.996c0.284 0.144 0.689 0.64 0.689 0.843 0 0.138-0.141 0.369-0.35 0.572l-0.195 0.192-0.239-0.154c-0.306-0.208-0.561-0.466-0.759-0.765l-0.006-0.010-0.132-0.21 0.191-0.194c0.209-0.215 0.419-0.345 0.561-0.346 0.089 0.009 0.171 0.035 0.243 0.075l-0.003-0.002zM4.416 16.198c0.789 0.207 1.684 0.411 2.29 0.52l0.486 0.088 0.066 0.386c0.103 0.592 0.319 1.551 0.526 2.337 0.103 0.391 0.176 0.723 0.159 0.739-0.077 0.076-1.2-0.616-1.817-1.119-0.89-0.743-1.631-1.629-2.197-2.627l-0.025-0.047c-0.192-0.356-0.219-0.437-0.139-0.437 0.026 0 0.318 0.072 0.649 0.159zM18.578 17.687c0.112 0.192 0.6 0.688 0.822 0.84 0.076 0.045 0.141 0.096 0.199 0.154v0c0 0.011-0.525 0.546-1.168 1.188l-1.17 1.17-0.651 0.093c-0.18 0.033-0.408 0.061-0.638 0.079l-0.025 0.002c0.020-0.255 0.048-0.483 0.087-0.707l-0.006 0.044 0.093-0.649 1.17-1.17c0.643-0.643 1.179-1.17 1.191-1.17s0.054 0.056 0.096 0.126z"></path>
</symbol>
<symbol id="icon-instagram" viewBox="0 0 24 24">
<path d="M8.38 1.265c-0.154 0.007-0.505 0.032-0.78 0.055-3.744 0.318-5.726 2.126-6.217 5.671-0.113 0.812-0.141 1.825-0.141 5.009 0 4.504 0.060 5.273 0.518 6.65 0.772 2.313 2.446 3.576 5.267 3.972 0.759 0.106 1.875 0.137 4.973 0.137s4.214-0.031 4.973-0.137c2.47-0.347 4.023-1.334 4.924-3.132 0.482-0.96 0.741-2.121 0.823-3.683 0.051-0.969 0.051-6.645 0-7.614-0.063-1.195-0.199-2.002-0.478-2.837-0.725-2.168-2.258-3.423-4.759-3.898-0.926-0.175-1.222-0.187-5.103-0.197-0.494-0.003-1.079-0.004-1.664-0.004-0.821 0-1.641 0.003-2.461 0.009l0.126-0.001zM16.8 2.854c2.786 0.462 3.914 1.6 4.348 4.386 0.066 0.421 0.072 0.824 0.072 4.76s-0.006 4.339-0.072 4.76c-0.222 1.428-0.627 2.39-1.288 3.060-0.684 0.694-1.629 1.099-3.1 1.328-0.421 0.066-0.825 0.072-4.76 0.072s-4.339-0.006-4.76-0.072c-2.795-0.435-3.956-1.592-4.386-4.368-0.069-0.445-0.074-0.791-0.074-4.78 0-4.753-0.004-4.663 0.264-5.712 0.513-2.006 1.678-3.014 3.916-3.388 0.73-0.123 1.088-0.131 5.24-0.123 3.763 0.007 4.222 0.014 4.6 0.077zM17.366 6.046c-0.622 0.179-0.91 0.905-0.581 1.466 0.376 0.642 1.34 0.63 1.722-0.020 0.097-0.165 0.113-0.234 0.112-0.492-0.001-0.347-0.058-0.481-0.306-0.722-0.176-0.167-0.414-0.27-0.676-0.27-0.096 0-0.19 0.014-0.278 0.040l0.007-0.002zM11.266 7.821c-0.651 0.123-1.336 0.422-1.816 0.791-0.303 0.234-0.792 0.75-0.981 1.036-0.241 0.372-0.438 0.801-0.569 1.258l-0.008 0.034c-0.096 0.358-0.107 0.469-0.107 1.060s0.011 0.702 0.107 1.059c0.405 1.492 1.557 2.643 3.019 3.041l0.030 0.007c0.356 0.096 0.47 0.107 1.059 0.107s0.703-0.011 1.059-0.107c1.492-0.404 2.644-1.556 3.041-3.018l0.007-0.030c0.096-0.356 0.107-0.47 0.107-1.059s-0.011-0.703-0.107-1.059c-0.129-0.481-0.428-1.106-0.698-1.461-0.249-0.327-0.758-0.813-1.061-1.014-0.374-0.241-0.806-0.436-1.267-0.564l-0.033-0.008c-0.496-0.129-1.309-0.162-1.782-0.073zM12.72 9.338c0.742 0.201 1.416 0.769 1.758 1.482 0.205 0.427 0.261 0.678 0.261 1.18s-0.056 0.753-0.261 1.18c-0.269 0.576-0.722 1.030-1.282 1.293l-0.016 0.007c-0.939 0.461-2.066 0.33-2.91-0.339-0.428-0.339-0.824-0.962-0.955-1.501-0.069-0.283-0.069-0.997 0-1.28 0.080-0.33 0.335-0.829 0.568-1.11 0.37-0.449 0.97-0.824 1.477-0.925 0.121-0.024 0.256-0.053 0.3-0.063 0.147-0.034 0.837 0.016 1.060 0.076z"></path>
</symbol>
<symbol id="icon-map" viewBox="0 0 24 24">
<path d="M7.96 2.662c-0.142 0.033-0.367 0.11-0.5 0.172-0.299 0.14-4.399 2.484-4.7 2.687-0.541 0.365-1.032 1.122-1.16 1.787-0.031 0.165-0.040 1.778-0.031 5.592 0.015 5.976-0.009 5.478 0.293 6.132 0.285 0.618 0.784 1.067 1.398 1.258 0.215 0.067 0.378 0.087 0.7 0.086 0.776-0.002 1.022-0.101 2.905-1.17 1.134-0.644 1.305-0.728 1.526-0.759 0.494-0.067 0.454-0.084 3.473 1.424 3.196 1.597 3.078 1.551 3.929 1.519 0.365-0.014 0.581-0.043 0.77-0.104 0.248-0.080 4.405-2.415 4.908-2.757 0.56-0.381 1.003-1.020 1.198-1.729 0.066-0.243 0.071-0.596 0.071-5.52 0-4.84-0.006-5.286-0.069-5.581-0.175-0.807-0.554-1.385-1.163-1.771-0.659-0.417-1.616-0.414-2.524 0.007-0.156 0.072-0.797 0.425-1.424 0.785-1.486 0.851-1.479 0.848-1.912 0.848h-0.347l-2.82-1.403c-1.552-0.772-2.92-1.433-3.041-1.468-0.311-0.092-1.145-0.111-1.48-0.035zM11.959 5.579c1.431 0.714 2.7 1.328 2.821 1.363l0.22 0.064v6.377c0 3.507-0.011 6.377-0.025 6.377s-1.206-0.595-2.65-1.322c-1.444-0.726-2.706-1.345-2.805-1.374l-0.18-0.052-0.010-6.366c-0.006-3.501-0.002-6.366 0.009-6.366s1.189 0.585 2.62 1.299zM7.79 10.704l-0.010 6.345-0.202 0.075c-0.111 0.042-0.803 0.418-1.538 0.836-0.734 0.418-1.435 0.798-1.557 0.845-0.143 0.053-0.309 0.084-0.482 0.087l-0.001 0c-0.446 0.004-0.703-0.194-0.87-0.671-0.065-0.188-0.070-0.547-0.070-5.461v-5.26l0.133-0.244c0.073-0.135 0.199-0.309 0.28-0.387 0.124-0.121 4.208-2.503 4.297-2.507 0.017-0.001 0.026 2.853 0.020 6.342zM20.738 5.213c0.106 0.066 0.196 0.148 0.267 0.244l0.002 0.003c0.243 0.349 0.235 0.145 0.223 5.843l-0.010 5.197-0.117 0.238c-0.079 0.153-0.173 0.284-0.283 0.401l0.001-0.001c-0.107 0.105-0.854 0.555-2.123 1.28-4.779 2.581-5.462 2.977-6.143 3.374l4.055-2.18-0.13 0.076v-12.717l0.19-0.071c0.104-0.039 0.804-0.419 1.554-0.844 0.252-0.158 0.736-0.43 1.226-0.694l0.254-0.126c0.416-0.168 0.755-0.175 1.034-0.023z"></path>
</symbol>
<symbol id="icon-maximize-circle" viewBox="0 0 24 24">
<path d="M11.56 1.268c-2.289 0.1-4.374 0.898-6.067 2.185l0.027-0.019c-0.607 0.456-1.641 1.489-2.095 2.097-1.23 1.609-2.016 3.616-2.142 5.801l-0.001 0.028c-0.071 1.185 0.093 2.764 0.323 3.085 0.248 0.348 0.806 0.386 1.116 0.075 0.225-0.225 0.254-0.401 0.158-0.96-0.103-0.602-0.146-1.938-0.079-2.52 0.206-1.815 0.948-3.587 2.061-4.919 0.469-0.531 0.967-1.012 1.5-1.451l0.022-0.018c1.022-0.778 2.236-1.363 3.556-1.675l0.065-0.013c0.607-0.131 1.304-0.206 2.018-0.206 0.625 0 1.237 0.057 1.831 0.167l-0.062-0.009c0.329 0.063 0.572-0.006 0.778-0.224 0.121-0.128 0.196-0.302 0.196-0.492 0-0.221-0.1-0.418-0.256-0.549l-0.001-0.001c-0.168-0.149-0.284-0.183-0.884-0.272-0.409-0.060-1.543-0.146-1.723-0.131l-0.339 0.018zM16.826 2.284c-0.351 0.083-0.559 0.351-0.559 0.723 0 0.195 0.021 0.262 0.117 0.4 0.226 0.32 0.277 0.33 1.614 0.345l1.176 0.012-2.401 2.408c-1.322 1.324-2.426 2.452-2.454 2.508-0.032 0.090-0.051 0.193-0.051 0.301 0 0.008 0 0.016 0 0.024l-0-0.001c0 0.493 0.414 0.812 0.922 0.707 0.184-0.037 0.276-0.124 2.619-2.461l2.427-2.423 0.012 1.197c0.012 1.17 0.015 1.199 0.107 1.345 0.357 0.575 1.223 0.443 1.362-0.207 0.030-0.135 0.045-0.907 0.045-2.245 0-1.751-0.009-2.061-0.063-2.187-0.073-0.187-0.214-0.334-0.393-0.412l-0.005-0.002c-0.15-0.069-0.299-0.073-2.239-0.071-1.145 0.002-2.149 0.019-2.235 0.039zM21.585 9.29c-0.238 0.084-0.421 0.272-0.495 0.509l-0.001 0.006c-0.036 0.144-0.030 0.263 0.034 0.636 0.104 0.601 0.145 1.938 0.079 2.52-0.245 2.194-1.215 4.124-2.663 5.58l0-0c-1.5 1.498-3.45 2.431-5.569 2.661-0.579 0.063-1.89 0.030-2.43-0.062-0.68-0.115-0.868-0.087-1.109 0.167-0.121 0.129-0.196 0.302-0.196 0.494s0.075 0.365 0.196 0.494l-0-0c0.167 0.176 0.285 0.221 0.816 0.306 0.525 0.091 1.129 0.142 1.745 0.142 2.443 0 4.696-0.814 6.503-2.185l-0.027 0.019c0.785-0.631 1.475-1.321 2.086-2.080l0.020-0.026c1.542-2.066 2.296-4.547 2.143-7.059-0.060-0.99-0.174-1.647-0.323-1.855-0.157-0.222-0.525-0.342-0.811-0.265zM8.8 14.289c-0.169 0.036-0.321 0.178-2.61 2.463l-2.43 2.427-0.002-1.080c-0.001-1.119-0.025-1.351-0.163-1.546-0.188-0.263-0.64-0.36-0.943-0.204-0.108 0.065-0.198 0.149-0.27 0.246l-0.002 0.003-0.12 0.169-0.013 2.146c-0.008 1.465 0.001 2.193 0.031 2.295 0.070 0.213 0.221 0.382 0.415 0.475l0.005 0.002c0.15 0.067 0.309 0.073 2.209 0.073 1.348 0 2.118-0.014 2.255-0.043 0.661-0.141 0.783-1.047 0.184-1.366-0.161-0.086-0.216-0.090-1.344-0.102l-1.176-0.012 2.423-2.428c2.337-2.342 2.424-2.433 2.462-2.618 0.122-0.585-0.322-1.023-0.911-0.9z"></path>
</symbol>
<symbol id="icon-menu" viewBox="0 0 24 24">
<path d="M3.339 6.624c-0.149 0.037-0.273 0.125-0.356 0.244l-0.001 0.002c-0.092 0.117-0.147 0.266-0.147 0.428 0 0.33 0.229 0.607 0.538 0.679l0.005 0.001c0.275 0.058 16.971 0.058 17.246 0 0.621-0.134 0.737-0.998 0.175-1.304-0.113-0.062-0.611-0.066-8.742-0.072-4.742-0.004-8.664 0.006-8.718 0.023zM3.354 11.329c-0.445 0.107-0.669 0.669-0.418 1.050 0.068 0.093 0.148 0.171 0.24 0.235l0.003 0.002 0.143 0.089h17.368l0.161-0.113c0.188-0.128 0.31-0.342 0.31-0.584s-0.122-0.455-0.308-0.582l-0.002-0.002-0.161-0.113-8.608-0.006c-4.735-0.003-8.663 0.007-8.728 0.023zM3.347 16.045c-0.34 0.076-0.577 0.474-0.497 0.833 0.056 0.199 0.182 0.363 0.348 0.467l0.003 0.002c0.114 0.062 0.607 0.065 8.798 0.065s8.684-0.003 8.798-0.065c0.562-0.308 0.446-1.172-0.175-1.304-0.253-0.055-17.033-0.052-17.276 0.003z"></path>
</symbol>
<symbol id="icon-minus" viewBox="0 0 24 24">
<path d="M5.685 10.926c-0.345 0.114-0.614 0.372-0.741 0.701l-0.003 0.008c-0.040 0.108-0.063 0.232-0.063 0.362 0 0.309 0.13 0.588 0.338 0.785l0.001 0c0.368 0.367-0.237 0.337 6.783 0.337s6.416 0.030 6.783-0.337c0.206-0.201 0.334-0.481 0.334-0.791 0-0.434-0.251-0.81-0.616-0.99l-0.006-0.003-0.195-0.099-6.24-0.008c-3.948-0.005-6.289 0.008-6.375 0.033z"></path>
</symbol>
<symbol id="icon-ranking" viewBox="0 0 24 24">
<path d="M11.487 1.042c-0.339 0.169-0.495 0.365-0.867 1.080l-0.32 0.616-0.521 0.087c-0.272 0.043-0.505 0.094-0.733 0.159l0.043-0.010c-0.553 0.201-0.906 0.732-0.832 1.257 0.048 0.349 0.231 0.646 0.699 1.137l0.437 0.458-0.116 0.516c-0.141 0.624-0.148 0.931-0.033 1.242 0.174 0.463 0.557 0.735 1.038 0.735 0.373 0.002 0.588-0.075 1.176-0.421l0.519-0.305 0.161 0.082c0.090 0.045 0.333 0.183 0.541 0.305 0.477 0.279 0.72 0.353 1.1 0.333 0.235-0.012 0.324-0.036 0.483-0.135 0.549-0.339 0.674-0.873 0.441-1.89l-0.113-0.492 0.459-0.47c0.494-0.502 0.594-0.657 0.669-1.017 0.015-0.068 0.024-0.147 0.024-0.227 0-0.229-0.069-0.442-0.188-0.618l0.003 0.004c-0.232-0.351-0.546-0.518-1.191-0.632-0.545-0.085-0.733-0.119-0.921-0.154l0.366 0.057c-0.122-0.021-0.149-0.062-0.438-0.63-0.468-0.925-0.775-1.19-1.394-1.19-0.009-0-0.020-0.001-0.031-0.001-0.17 0-0.329 0.046-0.465 0.126l0.004-0.002zM12.236 3.18c0.4 0.78 0.59 0.909 1.577 1.078l0.153 0.026-0.319 0.338c-0.526 0.556-0.642 0.929-0.494 1.588 0.043 0.192 0.072 0.349 0.064 0.349-0.009 0-0.172-0.090-0.366-0.201-0.405-0.233-0.546-0.277-0.854-0.279-0.3 0-0.516 0.072-0.892 0.295-0.094 0.062-0.201 0.121-0.314 0.17l-0.014 0.005c0.016-0.142 0.039-0.268 0.070-0.391l-0.004 0.020c0.139-0.652 0.027-1.005-0.493-1.529-0.178-0.181-0.318-0.338-0.308-0.348 0.011-0.009 0.189-0.048 0.397-0.084 0.45-0.078 0.781-0.238 0.984-0.476 0.076-0.090 0.232-0.346 0.348-0.573 0.074-0.16 0.15-0.295 0.235-0.423l-0.007 0.012c0.011 0.001 0.117 0.189 0.236 0.42zM10.296 9.282c-0.572 0.070-1.098 0.33-1.539 0.758-0.341 0.333-0.57 0.69-0.705 1.098-0.099 0.302-0.108 0.38-0.123 1.209l-0.016 0.888-2.187 0.016c-2.428 0.018-2.365 0.012-2.966 0.302-0.231 0.112-0.384 0.228-0.665 0.507-0.414 0.411-0.603 0.715-0.742 1.2l-0.093 0.321v6.652l0.12 0.169c0.076 0.103 0.169 0.187 0.276 0.251l0.004 0.002 0.159 0.084 10.060 0.010c7.22 0.008 10.12-0.001 10.274-0.033 0.146-0.025 0.272-0.096 0.366-0.198l0-0c0.24-0.239 0.25-0.35 0.231-2.293-0.016-1.598-0.023-1.701-0.107-1.986-0.139-0.47-0.331-0.777-0.739-1.181-0.28-0.279-0.433-0.395-0.664-0.507-0.6-0.29-0.535-0.284-2.97-0.302l-2.19-0.017v-2.239c0-1.873-0.011-2.289-0.063-2.547-0.22-1.006-0.96-1.797-1.918-2.086l-0.020-0.005c-0.284-0.085-0.378-0.090-1.899-0.101-0.151-0.003-0.329-0.004-0.508-0.004-0.484 0-0.966 0.011-1.444 0.032l0.068-0.002zM13.913 10.897c0.431 0.239 0.634 0.598 0.673 1.188 0.014 0.206 0.010 2.351-0.006 4.764l-0.030 4.391h-5.11l-0.009-3.65c-0.018-6.307-0.024-5.863 0.075-6.075 0.135-0.281 0.355-0.504 0.627-0.638l0.008-0.004 0.24-0.115 3.319 0.022 0.213 0.117zM7.92 18v3.24h-5.16v-2.739c0-3.15-0.017-2.992 0.366-3.375 0.37-0.37 0.298-0.361 2.704-0.365l2.089-0.001v3.24zM20.454 17.841c0.317 0.139 0.566 0.388 0.702 0.696l0.003 0.009c0.075 0.201 0.081 0.309 0.081 1.455v1.239h-5.16v-3.48h2.079c1.99 0 2.086 0.003 2.295 0.081z"></path>
</symbol>
<symbol id="icon-sms" viewBox="0 0 24 24">
<path d="M5.928 2.822c-0.959 0.123-1.855 0.442-2.529 0.899-0.416 0.306-0.775 0.655-1.082 1.046l-0.009 0.012c-0.434 0.585-0.771 1.407-0.927 2.261-0.114 0.627-0.139 1.52-0.139 4.96s0.025 4.333 0.139 4.96c0.216 1.184 0.711 2.15 1.467 2.865 0.804 0.76 1.797 1.191 3.127 1.355 0.719 0.089 11.331 0.089 12.050 0 1.981-0.245 3.368-1.161 4.115-2.719 0.35-0.73 0.514-1.417 0.58-2.441 0.050-0.78 0.050-7.26 0-8.040-0.066-1.024-0.23-1.711-0.58-2.441-0.745-1.553-2.12-2.462-4.112-2.718-0.404-0.052-1.282-0.060-6.080-0.057-4.397 0.004-5.697 0.016-6.020 0.058zM17.712 4.282c2.039 0.221 3.179 1.276 3.465 3.207 0.094 0.63 0.094 8.392 0 9.022-0.268 1.811-1.265 2.838-3.061 3.156-0.391 0.069-0.764 0.073-6.116 0.073s-5.725-0.004-6.116-0.073c-1.796-0.318-2.792-1.345-3.061-3.156-0.094-0.63-0.094-8.392 0-9.022 0.282-1.903 1.425-2.98 3.397-3.202 0.468-0.053 11.009-0.057 11.492-0.005zM6.785 8.288c-0.119 0.043-0.22 0.108-0.304 0.191l0-0c-0.135 0.133-0.219 0.319-0.219 0.523 0 0.18 0.065 0.346 0.173 0.474l-0.001-0.001c0.212 0.246 3.448 2.791 3.761 2.957 0.521 0.278 0.925 0.376 1.646 0.398 0.487 0.015 0.693 0.004 0.96-0.050 0.448-0.090 0.882-0.26 1.201-0.469 0.372-0.245 3.538-2.774 3.611-2.885 0.281-0.429 0.060-1.018-0.427-1.14-0.362-0.091-0.378-0.081-2.208 1.376-0.923 0.736-1.779 1.391-1.902 1.457-0.3 0.16-0.662 0.24-1.090 0.24-0.018 0.001-0.039 0.001-0.060 0.001-0.373 0-0.723-0.092-1.031-0.256l0.012 0.006c-0.127-0.068-0.973-0.717-1.88-1.441s-1.686-1.332-1.733-1.351c-0.090-0.035-0.194-0.055-0.303-0.055-0.073 0-0.144 0.009-0.212 0.026l0.006-0.001z"></path>
</symbol>
<symbol id="icon-plus" viewBox="0 0 24 24">
<path d="M5 13h6v6c0 0.552 0.448 1 1 1s1-0.448 1-1v-6h6c0.552 0 1-0.448 1-1s-0.448-1-1-1h-6v-6c0-0.552-0.448-1-1-1s-1 0.448-1 1v6h-6c-0.552 0-1 0.448-1 1s0.448 1 1 1z"></path>
</symbol>
<symbol id="icon-arrow-right" viewBox="0 0 30 32">
<path d="M17.694 7.558c-0.197 0.090-0.35 0.247-0.431 0.442l-0.002 0.006c-0.055 0.109-0.087 0.238-0.087 0.375 0 0.138 0.033 0.268 0.091 0.383l-0.002-0.005c0.064 0.137 1.079 1.184 3.136 3.238l3.044 3.038-9.651 0.024c-8.872 0.023-9.662 0.032-9.801 0.109-0.314 0.158-0.526 0.477-0.527 0.845v0c0 0.354 0.188 0.657 0.527 0.845 0.139 0.075 0.93 0.085 9.801 0.107l9.651 0.026-3.044 3.036c-2.057 2.056-3.072 3.102-3.136 3.238-0.053 0.112-0.085 0.243-0.085 0.382 0 0.297 0.143 0.561 0.365 0.725l0.002 0.002c0.154 0.117 0.248 0.147 0.52 0.162 0.301 0.015 0.352 0.004 0.557-0.136 0.378-0.252 7.864-7.782 7.955-7.998 0.047-0.118 0.074-0.255 0.074-0.399 0-0.117-0.018-0.23-0.052-0.336l0.002 0.008c-0.058-0.158-7.878-8.013-8.088-8.124-0.179-0.096-0.631-0.092-0.819 0.006z"></path>
</symbol>
</defs>
</svg>
